# xmcd CD database file
#
# Track frame offsets:
#	150
#	14685
#	30494
#	45279
#	59427
#	71603
#	87272
#	103298
#	115773
#	127273
#	141156
#	157376
#	171684
#	185946
#	198513
#	214545
#	231994
#	245710
#	263137
#	278898
#
# Disc length: 3952 seconds
#
# Revision: 0
# Processed by: cddbd v1.5.1PL0 Copyright (c) Steve Scherf et al.
# Submitted via: CdAid (MTCDDB.DLL V2003.12.21)
#
DISCID=400f6e14
DTITLE=Delley and Dorivan -- Ronaldo Viola and Praiano - Dose Dupla
DYEAR=1999
DGENRE=Country
TTITLE0=Aconteceu Comigo
TTITLE1=Em Clima de Rodeio
TTITLE2=Marcas de Amor
TTITLE3=Brasil Tem Solução
TTITLE4=Passeio do Gado
TTITLE5=Reis dos Reis
TTITLE6=Sem Você Não Sei  Viver
TTITLE7=Silicone
TTITLE8=Sistema Bruto
TTITLE9=Tô Doidão
TTITLE10=Pescaria
TTITLE11=Rei da Pecuária
TTITLE12=Se Não Aguento Não Vendo
TTITLE13=O Mesmo Contigo
TTITLE14=Jeitão de Caboclo
TTITLE15=Desatino
TTITLE16=Duelo de Gaitão
TTITLE17=Parceria com Deus
TTITLE18=Paixão Desenfreada
TTITLE19=Irresistível Paixão
EXTD=ID3G:   2 YEAR: 1999
EXTT0=
EXTT1=
EXTT2=
EXTT3=
EXTT4=
EXTT5=
EXTT6=
EXTT7=
EXTT8=
EXTT9=
EXTT10=
EXTT11=
EXTT12=
EXTT13=
EXTT14=
EXTT15=
EXTT16=
EXTT17=
EXTT18=
EXTT19=
PLAYORDER=
